<svg width="147" height="78" viewBox="0 0 147 78" fill="none" xmlns="http://www.w3.org/2000/svg">
<path d="M2.1036 69.5312H10.1365V70.7229H2.57174C2.35895 70.7229 2.20645 70.7725 2.11424 70.8718C2.01493 70.9641 1.96528 71.1166 1.96528 71.3293V75.5852H0.592773V71.0421C0.592773 70.5243 0.713356 70.1448 0.95452 69.9036C1.19568 69.6554 1.57871 69.5312 2.1036 69.5312Z" fill="white"/>
<path fill-rule="evenodd" clip-rule="evenodd" d="M23.7018 69.9036C23.9359 70.1448 24.0529 70.5243 24.0529 71.0421V74.085C24.0529 74.5957 23.9359 74.9752 23.7018 75.2234C23.4607 75.4646 23.0812 75.5852 22.5634 75.5852H14.6369C14.112 75.5852 13.729 75.4646 13.4878 75.2234C13.2538 74.9752 13.1367 74.5957 13.1367 74.085V71.0421C13.1367 70.5243 13.2538 70.1448 13.4878 69.9036C13.729 69.6554 14.112 69.5312 14.6369 69.5312H22.5634C23.0812 69.5312 23.4607 69.6554 23.7018 69.9036ZM22.6911 71.3293C22.6911 71.1166 22.645 70.9641 22.5528 70.8718C22.4535 70.7725 22.2974 70.7229 22.0846 70.7229H15.105C14.8923 70.7229 14.7398 70.7725 14.6475 70.8718C14.5553 70.9641 14.5092 71.1166 14.5092 71.3293V73.7871C14.5092 74.007 14.5553 74.163 14.6475 74.2552C14.7398 74.3474 14.8923 74.3935 15.105 74.3935H22.0846C22.2974 74.3935 22.4535 74.3474 22.5528 74.2552C22.645 74.163 22.6911 74.007 22.6911 73.7871V71.3293Z" fill="white"/>
<path fill-rule="evenodd" clip-rule="evenodd" d="M37.6072 69.9036C37.8484 70.1448 37.969 70.5243 37.969 71.0421V74.085C37.969 74.5957 37.8484 74.9752 37.6072 75.2234C37.3731 75.4646 36.9937 75.5852 36.4688 75.5852H28.5423C28.0245 75.5852 27.645 75.4646 27.4038 75.2234C27.1698 74.9752 27.0527 74.5957 27.0527 74.085V71.0421C27.0527 70.5243 27.1698 70.1448 27.4038 69.9036C27.645 69.6554 28.0245 69.5312 28.5423 69.5312H36.4688C36.9937 69.5312 37.3731 69.6554 37.6072 69.9036ZM36.5965 71.3293C36.5965 71.1166 36.5503 70.9641 36.4581 70.8718C36.3659 70.7725 36.2134 70.7229 36.0006 70.7229H29.0211C28.8012 70.7229 28.6487 70.7725 28.5636 70.8718C28.4713 70.9641 28.4252 71.1166 28.4252 71.3293V73.7871C28.4252 74.007 28.4713 74.163 28.5636 74.2552C28.6487 74.3474 28.8012 74.3935 29.0211 74.3935H36.0006C36.2134 74.3935 36.3659 74.3474 36.4581 74.2552C36.5503 74.163 36.5965 74.007 36.5965 73.7871V71.3293Z" fill="white"/>
<path d="M42.3413 69.5307H50.6189V70.7223H42.3413V73.7865C42.3413 74.0064 42.3874 74.1624 42.4796 74.2546C42.5789 74.3469 42.7349 74.393 42.9477 74.393H50.6189V75.5846H42.4796C41.9618 75.5846 41.5788 75.464 41.3305 75.2228C41.0893 74.9746 40.9688 74.5951 40.9688 74.0844V67.8496H42.3413V69.5307Z" fill="white"/>
<path d="M55.1406 68.5518H65.2695V69.8072H55.63C55.4101 69.8072 55.2576 69.8498 55.1725 69.9349C55.0874 70.0271 55.0448 70.1867 55.0448 70.4137V73.7332C55.0448 73.9602 55.0874 74.1198 55.1725 74.212C55.2576 74.2971 55.4101 74.3397 55.63 74.3397H65.2695V75.5845H55.1406C54.6157 75.5845 54.2291 75.4604 53.9809 75.2121C53.7397 74.9639 53.6191 74.5809 53.6191 74.0631V70.0839C53.6191 69.5661 53.7397 69.183 53.9809 68.9348C54.2291 68.6794 54.6157 68.5518 55.1406 68.5518Z" fill="white"/>
<path fill-rule="evenodd" clip-rule="evenodd" d="M79.0155 69.9036C79.2567 70.1448 79.3773 70.5243 79.3773 71.0421V74.085C79.3773 74.5957 79.2567 74.9752 79.0155 75.2234C78.7815 75.4646 78.402 75.5852 77.8771 75.5852H69.6208C69.1597 75.5852 68.8192 75.4752 68.5994 75.2554C68.3795 75.0355 68.2695 74.6879 68.2695 74.2127V73.3828C68.2695 72.9075 68.3795 72.5564 68.5994 72.3295C68.8122 72.1096 69.1491 71.9996 69.6101 71.9996H77.9941V71.3293C77.9941 71.1166 77.948 70.9641 77.8558 70.8718C77.7636 70.7725 77.6146 70.7229 77.4089 70.7229H68.5781V69.5312H77.8771C78.402 69.5312 78.7815 69.6554 79.0155 69.9036ZM77.9941 73.1168H70.1315C69.9612 73.1168 69.8371 73.1523 69.7591 73.2232C69.6881 73.3012 69.6527 73.4253 69.6527 73.5956V73.9041C69.6527 74.0744 69.6881 74.1985 69.7591 74.2765C69.8371 74.3545 69.9612 74.3935 70.1315 74.3935H77.4089C77.6146 74.3935 77.7636 74.3474 77.8558 74.2552C77.948 74.163 77.9941 74.007 77.9941 73.7871V73.1168Z" fill="white"/>
<path fill-rule="evenodd" clip-rule="evenodd" d="M92.9527 69.9036C93.1939 70.1448 93.3145 70.5243 93.3145 71.0421V74.085C93.3145 74.5957 93.1939 74.9752 92.9527 75.2234C92.7186 75.4646 92.3392 75.5852 91.8143 75.5852H85.0369C84.6467 75.5852 84.3524 75.5213 84.1538 75.3937C83.9552 75.266 83.8204 75.0674 83.7495 74.7978V77.2662H82.377V71.0421C82.377 70.5243 82.4975 70.1448 82.7387 69.9036C82.9799 69.6554 83.3593 69.5312 83.8771 69.5312H91.8143C92.3392 69.5312 92.7186 69.6554 92.9527 69.9036ZM91.9313 71.3293C91.9313 71.1166 91.8887 70.9641 91.8036 70.8718C91.7114 70.7725 91.5589 70.7229 91.3461 70.7229H84.3559C84.136 70.7229 83.98 70.7725 83.8878 70.8718C83.7956 70.9641 83.7495 71.1166 83.7495 71.3293V73.7871C83.7495 74.007 83.7956 74.163 83.8878 74.2552C83.98 74.3474 84.136 74.3935 84.3559 74.3935H91.3461C91.5589 74.3935 91.7114 74.3474 91.8036 74.2552C91.8887 74.163 91.9313 74.007 91.9313 73.7871V71.3293Z" fill="white"/>
<path d="M97.687 69.5307H105.965V70.7223H97.687V73.7865C97.687 74.0064 97.7331 74.1624 97.8253 74.2546C97.9246 74.3469 98.0806 74.393 98.2934 74.393H105.965V75.5846H97.8253C97.3075 75.5846 96.9245 75.464 96.6762 75.2228C96.435 74.9746 96.3145 74.5951 96.3145 74.0844V67.8496H97.687V69.5307Z" fill="white"/>
<path d="M118.487 69.5312H119.86V74.085C119.86 74.5957 119.743 74.9752 119.509 75.2234C119.268 75.4646 118.884 75.5852 118.36 75.5852H110.454C109.944 75.5852 109.568 75.4646 109.327 75.2234C109.085 74.9752 108.965 74.5957 108.965 74.085V69.5312H110.337V73.7871C110.337 74.007 110.383 74.163 110.476 74.2552C110.575 74.3474 110.731 74.3935 110.944 74.3935H117.891C118.104 74.3935 118.257 74.3474 118.349 74.2552C118.441 74.163 118.487 74.007 118.487 73.7871V69.5312Z" fill="white"/>
<path d="M124.36 69.5312H132.403V70.7229H124.838C124.626 70.7229 124.47 70.7725 124.37 70.8718C124.278 70.9641 124.232 71.1166 124.232 71.3293V75.5852H122.859V71.0421C122.859 70.5243 122.98 70.1448 123.221 69.9036C123.462 69.6554 123.842 69.5312 124.36 69.5312Z" fill="white"/>
<path fill-rule="evenodd" clip-rule="evenodd" d="M136.776 73.1168V73.7871C136.776 74.007 136.825 74.163 136.925 74.2552C137.017 74.3474 137.166 74.3935 137.372 74.3935H146.203V75.5852H136.893C136.361 75.5852 135.978 75.4575 135.744 75.2022C135.517 74.9539 135.403 74.5673 135.403 74.0424V71.0421C135.403 70.5243 135.52 70.1448 135.754 69.9036C135.996 69.6554 136.375 69.5312 136.893 69.5312H145.149C145.617 69.5312 145.958 69.6412 146.171 69.8611C146.39 70.081 146.5 70.4285 146.5 70.9038V71.7443C146.5 72.2195 146.39 72.5671 146.171 72.787C145.958 73.0069 145.617 73.1168 145.149 73.1168H136.776ZM136.776 71.9996H144.649C144.819 71.9996 144.943 71.9642 145.022 71.8932C145.092 71.8223 145.128 71.6982 145.128 71.5209V71.2336C145.128 71.0563 145.092 70.9286 145.022 70.8506C144.943 70.7654 144.819 70.7229 144.649 70.7229H137.372C137.152 70.7229 136.999 70.7761 136.914 70.8825C136.822 70.9889 136.776 71.1556 136.776 71.3825V71.9996Z" fill="white"/>
<path d="M56.0973 36.3995C56.0973 43.8685 60.5765 50.3161 66.9922 53.1887L65.9176 53.625C59.5977 50.465 55.2461 43.9323 55.2461 36.3995C55.2461 29.8029 58.5869 23.9618 63.6727 20.4933C64.2897 20.3656 64.9281 20.3018 65.5984 20.3018C59.9382 23.4404 56.0973 29.4837 56.0973 36.3995Z" fill="white"/>
<path d="M81.0684 18.312C82.0046 18.6525 82.9197 19.0674 83.7921 19.5462C83.7495 19.7058 83.7176 19.8335 83.6963 19.8973C83.6644 20.0675 83.6112 20.2271 83.558 20.3974C82.7601 19.9399 81.9302 19.5462 81.0684 19.2164C81.0684 19.2164 81.0684 19.2128 81.0684 19.2057C81.079 18.9185 81.0896 18.6099 81.0684 18.312Z" fill="white"/>
<path d="M92.9015 36.3997C92.9015 34.059 92.4547 31.8247 91.6673 29.7712C91.7028 29.7216 91.7347 29.6755 91.7631 29.6329C91.9333 29.4095 92.1035 29.1967 92.2631 28.9839C92.3837 29.2747 92.4972 29.5655 92.6036 29.8563C93.3484 31.8991 93.7527 34.1015 93.7527 36.3997C93.7527 43.8261 89.5181 50.2844 83.3365 53.4975L82.2832 53.0719C82.2832 53.0719 82.2867 53.0719 82.2938 53.0719L82.2832 53.0613C88.5499 50.1248 92.9015 43.7623 92.9015 36.3997Z" fill="white"/>
<path d="M75.2913 51.5407V52.5408L76.068 54.7326L76.3552 55.5625L76.717 56.5839L77.3873 58.4671L77.7065 59.3714H71.876L72.1739 58.5309L72.8442 56.6371L73.2059 55.605L73.4932 54.7751L74.2912 52.5408V51.5407V48.2105C74.5891 48.1999 74.9295 48.1786 75.2913 48.1147V51.5407Z" fill="#3988FF"/>
<path d="M51.6389 7.10874L50.3408 5.54472L50.7026 5.24681L52.0006 6.81083L53.0646 5.92774L51.7772 4.36372L52.1389 4.05518L53.4369 5.62984L53.937 5.21489L54.1604 5.02338L54.5222 5.4596L51.2665 8.15142L50.9047 7.7152L51.1281 7.53432L51.6389 7.10874Z" fill="#3988FF"/>
<path d="M51.5449 8.49113L54.8006 5.79932L55.1624 6.23554L55.1837 7.00159L55.9816 8.4273L55.8327 8.92736L56.3434 9.53381L54.9283 10.7042L54.4176 10.0977L53.9069 10.1403L52.6514 9.08695L51.9067 8.92736L51.5449 8.49113Z" fill="#3988FF"/>
<path d="M56.2466 10.1191C58.6405 12.811 62.3218 14.2792 64.9924 15.0346C65.4924 15.1729 66.1521 15.3113 66.9075 15.4709C66.9146 15.4709 66.9217 15.4709 66.9288 15.4709C67.216 15.5347 67.5246 15.5985 67.8331 15.673V15.7156C67.7977 15.8716 67.7622 16.0241 67.7267 16.1731C67.6984 16.2866 67.67 16.3965 67.6416 16.5029C67.6345 16.5455 67.6239 16.5916 67.6097 16.6412C67.3012 16.5774 66.9926 16.5135 66.7053 16.4497C66.184 16.3433 65.7159 16.2475 65.3009 16.1412C65.0881 16.0986 64.8966 16.0454 64.7157 15.9922C61.9175 15.2049 58.0447 13.6515 55.4912 10.7894L56.2466 10.1191Z" fill="#3988FF"/>
<path d="M75.292 33.5906C74.9835 33.3672 74.643 33.165 74.2812 32.9948V31.9308V31.4414C74.4621 31.4946 74.6536 31.5372 74.8558 31.5584C75.0047 31.5691 75.1537 31.5584 75.292 31.5265V31.5691V32.0904V33.5906Z" fill="#3988FF"/>
<path d="M78.3019 51.5395V52.5397L80.9831 53.6249L82.1108 54.0824L83.4514 54.625L85.7922 55.5613L95.1763 59.3703H89.3564L84.1749 56.4337L82.0683 55.2421L80.8767 54.5612L79.8765 53.9973L77.3018 52.5397V51.5395V47.7093V47.2092C77.3089 47.2021 77.3195 47.1915 77.3337 47.1773C77.5677 46.9751 77.8018 46.7198 78.0359 46.4112C78.1281 46.2907 78.2168 46.1594 78.3019 46.0176V46.3474V46.89V47.4114V51.5395Z" fill="#EC193F"/>
<path d="M63.5123 3.08745L63.4697 2.24692L64.5762 2.19372L64.6826 2.18308L65.7785 2.12988L65.8211 2.98105L65.7253 3.58751L65.1933 3.61943L65.204 3.89606L65.6721 3.87478L65.6296 4.16205L65.2253 4.18332L65.2359 4.45995L65.5764 4.44931L65.5338 4.73658L65.2465 4.74722L65.2572 5.03449L65.4913 5.02385L65.4381 5.32176L64.8635 5.35368L64.7039 5.36432L64.1294 5.3856L64.0549 5.08769L64.2783 5.07705L64.2571 4.80042L63.9804 4.81106L63.906 4.53443L64.2464 4.51315L64.2358 4.22588L63.8315 4.24716L63.7464 3.97053L64.2145 3.94925L64.2039 3.66198L63.6719 3.6939L63.5123 3.08745Z" fill="#EC193F"/>
<path d="M63.5668 2.05492L63.5029 0.767529L65.6096 0.661133L65.6734 1.94852L65.3329 1.9698L65.2797 0.980321L64.9925 1.0016L65.0457 1.98044L64.7584 1.99108L64.7158 1.01224L64.4286 1.02288L64.4818 2.01236L64.1945 2.023L64.1519 1.04416L63.8647 1.0548L63.9072 2.03364L63.5668 2.05492Z" fill="#EC193F"/>
<path d="M65.3868 5.69336C65.589 8.22558 66.77 10.045 68.1638 11.3217C68.2063 11.7828 68.2383 12.2403 68.2595 12.6942C66.3976 11.2685 64.6527 9.07675 64.3867 5.76784L65.3868 5.69336Z" fill="#EC193F"/>
<path d="M77.6635 37.0165C77.55 37.0094 77.4294 37.013 77.3018 37.0271V31.303V30.7179V30.0901V29.4943V28.8453V28.1644C77.3089 28.136 77.3159 28.1076 77.323 28.0792C77.5571 27.3026 77.8869 26.5578 78.3019 25.8662V26.0364V27.6856V28.4942V29.3454V29.9412V30.6221V36.9846V37.091C78.1316 37.0484 77.9401 37.0271 77.7273 37.0165H77.6635Z" fill="#EC193F"/>
<path d="M60.227 59.3705H54.3965L63.4508 55.6998L65.8021 54.7529L67.1746 54.1996L68.3237 53.7315L71.2709 52.5399V51.5397V48.7096C71.5794 48.55 71.9199 48.4436 72.2816 48.3691V51.5397V52.5399L69.5047 54.1039L68.4939 54.6891L67.2704 55.3806L65.1425 56.5829L60.227 59.3705Z" fill="#65CBDF"/>
<path d="M57.0667 22.5889L57.1944 22.4719L57.1838 22.4506L56.8752 22.1207L57.1306 21.9824L57.354 22.2271L57.4072 22.2803L57.6094 22.0782L57.5455 22.0144L57.3753 21.8335L57.62 21.6845L57.7264 21.7909L57.8222 21.8867L58.0243 21.6952L57.9179 21.5781L57.8754 21.5356L58.0562 21.4185L58.1413 21.376L58.535 21.7909L58.6414 21.908L59.0351 22.3229L58.8542 22.5783L58.7052 22.4187L58.4925 22.6102L58.684 22.823L58.5244 23.057L58.2903 22.8017L58.0775 22.9932L58.3541 23.2911L58.1945 23.5358L57.8754 23.1953L57.6626 23.3869L58.0243 23.7699L57.6732 24.2806L57.0561 24.8551L56.3007 24.0572L56.2262 23.972L56.1198 23.8656L55.4814 23.1741L56.0985 22.5889L56.6305 22.2697L56.9923 22.6634L57.0667 22.5889Z" fill="#65CBDF"/>
<path d="M55.6497 23.6217L54.9263 24.292L55.1178 24.5048L55.8413 23.8345L56.0115 24.026L56.0328 24.0366L55.9583 24.1004L55.3093 24.7069L55.4689 24.8771L55.5008 24.9197L56.2243 24.2494L56.4158 24.4516L55.7029 25.1218L55.8945 25.3346L56.6179 24.6643L56.852 24.9091L55.9051 25.7921L55.3093 25.1538L54.4688 24.26L55.4157 23.377L55.6497 23.6217Z" fill="#65CBDF"/>
<path d="M67.0356 18.6425C66.9611 18.9617 66.9079 19.2915 66.8973 19.6319C66.7802 19.6213 66.6632 19.6 66.5568 19.5894C66.0887 19.5468 65.6312 19.5468 65.1843 19.5681C64.248 19.6 63.3649 19.7383 62.5244 20.015C61.3008 20.4086 60.1624 21.0577 59.1304 21.962L58.4707 21.2172C60.2582 19.6426 62.3967 18.7595 64.7481 18.5893C65.3652 18.5467 65.9929 18.5361 66.6419 18.5999C66.7696 18.6105 66.9079 18.6318 67.0356 18.6425Z" fill="#65CBDF"/>
<path d="M71.993 32.4097C71.7483 32.3991 71.5036 32.431 71.2695 32.4948V31.7713V29.3349V28.7178C71.493 28.8561 71.7164 28.9412 71.9079 28.9944L72.0994 29.037C72.1313 29.1753 72.1845 29.3029 72.2271 29.4306C72.2484 29.4732 72.259 29.5157 72.2803 29.5583V31.2074V31.7607V32.4204C72.181 32.4133 72.0852 32.4097 71.993 32.4097Z" fill="#65CBDF"/>
<path d="M86.4412 59.3704H80.6108L79.6745 58.0404L78.4616 56.3168L77.7913 55.3593L77.2486 54.5932L75.791 52.5398V51.5397V48.0179C76.1102 47.9647 76.5251 47.7945 76.8018 47.5498V51.5397V52.5398L79.1531 54.2102L80.0362 54.8379L81.1215 55.5933L83.0259 56.9552L86.4412 59.3704Z" fill="#67BE43"/>
<path d="M60.1932 6.96067L61.1188 6.37549L61.5657 7.09898L61.7785 7.68416L61.3316 7.96079L61.4806 8.2055L61.8742 7.96079L61.97 8.22678L61.6295 8.45021L61.7785 8.68428L62.0657 8.50341L62.1615 8.78004L61.9274 8.92899L62.0764 9.1737L62.2679 9.04603L62.3637 9.34394L61.8742 9.64184L61.7466 9.72696L61.2571 10.0249L61.0443 9.81208L61.2359 9.6844L61.0869 9.45033L60.8422 9.59929L60.64 9.38649L60.9379 9.20562L60.789 8.97155L60.4379 9.18434L60.2357 8.97155L60.64 8.72684L60.4911 8.48213L60.0336 8.7694L59.608 8.32253L59.1611 7.59904L60.0868 7.01386L60.1932 6.96067Z" fill="#67BE43"/>
<path d="M59.1516 7.3855L58.4707 6.28962L60.2582 5.18311L60.9391 6.27898L60.6518 6.45986L60.1305 5.61933L59.8858 5.76828L60.4071 6.60881L60.1624 6.75777L59.6517 5.91724L59.407 6.06619L59.9283 6.90672L59.6836 7.05567L59.1623 6.21515L58.9282 6.3641L59.4389 7.20463L59.1516 7.3855Z" fill="#67BE43"/>
<path d="M68.0139 14.7485C67.9997 14.8123 67.9855 14.8761 67.9713 14.94C65.5881 14.0356 63.0558 12.695 61.5557 10.2479L62.4175 9.72656C63.7155 11.8651 65.9179 13.078 68.1309 13.9292C68.1203 14.0356 68.1097 14.142 68.099 14.2378L68.0777 14.3761C68.0636 14.4612 68.0494 14.5463 68.0352 14.6314L68.0139 14.7485Z" fill="#67BE43"/>
<path d="M75.791 33.9732V33.3455V31.9304V31.4091V31.3665C76.2379 31.1431 76.5783 30.8026 76.8018 30.5366V31.0048V31.558V35.101C76.7096 34.945 76.5961 34.7854 76.4613 34.6222C76.2804 34.4094 76.0464 34.186 75.791 33.9732Z" fill="#67BE43"/>
<path d="M69.8223 58.1576L68.9605 59.3705H63.1406L66.3431 57.0936L68.2689 55.7318L69.3754 54.9551L70.2798 54.3061L72.7801 52.5399V51.5398V48.2947C73.0993 48.2628 73.4398 48.2415 73.7802 48.2202V51.5398V52.5399L72.28 54.6678L71.7268 55.4445L71.0458 56.4127L69.8223 58.1576Z" fill="#FEC30D"/>
<path d="M52.1205 13.3013L53.344 13.7056L53.2376 14.0354L52.3014 13.7269L52.2162 13.9928L53.1419 14.3014L53.0568 14.5674L52.1205 14.2588L52.0354 14.5248L52.9717 14.8334L52.8759 15.11L51.9396 14.8015L51.8545 15.0674L52.7908 15.376L52.6844 15.7058L51.4502 15.3015L52.1205 13.3013Z" fill="#FEC30D"/>
<path d="M54.8854 14.2478L54.7258 14.7478L54.9918 14.8436L55.1407 14.3967L55.3854 14.5457L55.2578 14.9287L55.5237 15.0138L55.6408 14.684L55.8855 14.833L55.8004 15.1096L56.0664 15.1947L56.1408 14.9819L56.4068 15.1415L56.226 15.6841L56.1728 15.8331L55.9919 16.3757L55.6833 16.3438L55.7578 16.131L55.4918 16.0459L55.3961 16.3119L55.1088 16.2799L55.2152 15.9501L54.9492 15.865L54.8215 16.248L54.5343 16.2267L54.6832 15.7799L54.4066 15.6841L54.247 16.1948L53.6299 16.1203L52.8213 15.8544L53.1724 14.8117L53.2043 14.7053L53.5448 13.6626L54.3534 13.9286L54.8854 14.2478Z" fill="#FEC30D"/>
<path d="M67.2699 17.8334C67.2344 17.954 67.1954 18.0782 67.1529 18.2058C66.8124 18.1633 66.44 18.1207 66.0251 18.0782C65.9506 18.0675 65.8761 18.0675 65.791 18.0569C64.8334 17.9505 63.7375 17.8334 62.5246 17.6632C60.7265 17.3972 58.6837 17.0142 56.4707 16.3652L56.7473 15.397C59.4285 16.1949 61.865 16.5886 63.8971 16.8333C64.7057 16.9397 65.4612 17.0142 66.1315 17.0887C66.6209 17.1419 67.0571 17.1844 67.4508 17.227L67.4401 17.2695C67.4118 17.3688 67.3834 17.4681 67.355 17.5674L67.2699 17.8334Z" fill="#FEC30D"/>
<path d="M73.7804 32.7823C73.4506 32.644 73.1207 32.5482 72.7803 32.4844V32.1439V31.5055V30.9629V30.4097C72.7803 30.4097 72.8867 30.5586 73.0782 30.7395C73.2165 30.8672 73.3867 31.0161 73.5995 31.1438C73.6634 31.1757 73.7272 31.2076 73.7804 31.2396V31.6439V32.1439V32.7823Z" fill="#FEC30D"/>
<path d="M72.7914 32.9432C72.784 32.9432 72.7803 32.9432 72.7803 32.9432V32.9209C72.7877 32.9283 72.7951 32.9357 72.8025 32.9432H72.7914Z" fill="#FEC30D"/>
<path d="M72.7803 32.9518V32.9419C72.7803 32.9419 72.7836 32.9419 72.7902 32.9419L72.7803 32.9518Z" fill="#FEC30D"/>
<path d="M52.2461 36.3993C52.2461 32.5797 53.2143 28.9835 54.9166 25.8342L55.8742 26.8556L56.9488 25.8449L57.0126 25.9193L57.2361 25.7065C55.3103 28.8133 54.1931 32.484 54.1931 36.3993C54.1931 44.0173 58.4064 50.667 64.6412 54.1462L62.3856 55.0505C56.2891 51.082 52.2461 44.2088 52.2461 36.3993Z" fill="white"/>
<path d="M80.0155 14.8442C80.0155 14.8442 80.012 14.8442 80.0049 14.8442C81.6647 15.2592 83.2393 15.8656 84.7182 16.6423C84.4629 17.3339 84.2607 17.9723 84.0905 18.5043C83.0691 17.951 81.9945 17.4935 80.8773 17.1211C80.8029 16.8232 80.7071 16.5147 80.5901 16.1955C80.473 15.8763 80.3347 15.5358 80.1538 15.1528C80.1113 15.0535 80.0652 14.9506 80.0155 14.8442Z" fill="white"/>
<path d="M93.0068 28.0586C93.4679 27.4983 93.9289 26.9592 94.39 26.4414C94.7659 27.1933 95.1028 27.9664 95.4008 28.7608C96.2732 31.1441 96.752 33.7189 96.752 36.4001C96.752 44.1138 92.8047 50.9125 86.8359 54.913L84.6016 54.0086V53.998C90.6981 50.4975 94.8049 43.9223 94.8049 36.4001C94.8049 33.7934 94.3155 31.3143 93.4218 29.0268C93.2941 28.7005 93.1558 28.3778 93.0068 28.0586Z" fill="white"/>
<path d="M82.7602 42.9746C82.0047 44.4109 81.1429 45.4217 80.1109 46.0707C79.7172 46.3154 79.2491 46.5282 78.749 46.7197V46.2409V45.6345C79.0576 45.5068 79.3448 45.3685 79.5896 45.2195C80.462 44.6769 81.2068 43.7938 81.8771 42.5171C81.8877 42.4852 82.6325 41.102 83.8241 39.0379C85.4413 36.2823 87.8884 32.3031 90.5696 28.7282C90.6973 28.5473 90.8356 28.3771 90.9739 28.2068C91.1654 27.9586 91.3569 27.7139 91.5485 27.4727C91.7896 27.1748 92.0343 26.8804 92.2826 26.5896C92.7365 26.0576 93.187 25.5434 93.6338 25.0469C93.8111 25.3519 93.9814 25.6569 94.1445 25.9619C93.6977 26.4726 93.2295 27.0046 92.772 27.5472C92.5238 27.8522 92.2755 28.1607 92.0272 28.4728C91.8357 28.7211 91.6407 28.9729 91.4421 29.2282C91.4208 29.2637 91.396 29.2992 91.3676 29.3346C86.7394 35.495 82.8027 42.9001 82.7602 42.9746Z" fill="white"/>
<path d="M84.538 18.7587C84.6976 18.2267 84.9104 17.5777 85.1764 16.8755C85.4743 17.0386 85.7651 17.2089 86.0488 17.3862C85.7935 18.1097 85.5807 18.78 85.4211 19.2907C85.2508 19.8652 85.1657 20.227 85.1551 20.2482C85.1444 20.2802 85.1338 20.3227 85.1232 20.3546C85.0593 20.6419 84.9742 20.9292 84.8784 21.2164C83.9847 24.1743 82.293 26.8767 80.729 29.3025C80.6545 29.4196 80.5801 29.5366 80.5056 29.643C80.0906 30.292 79.6225 31.0262 79.0586 31.6964V31.09V30.9304V30.0367C79.2714 29.7281 79.4735 29.4089 79.6757 29.1004C81.378 26.4511 83.1336 23.7061 84.006 20.6419C84.0698 20.4291 84.1337 20.227 84.1869 20.0035C84.1975 19.9823 84.2082 19.9078 84.2401 19.8014C84.2933 19.5886 84.3997 19.2162 84.538 18.7587Z" fill="white"/>
<path d="M71.4714 33.8354C71.4714 33.8461 71.3118 34.6015 72.0034 34.7079C72.0672 34.7185 72.163 34.7398 72.28 34.7611C72.4183 34.793 72.5886 34.8356 72.7801 34.8888C73.0886 34.9739 73.4291 35.0803 73.7802 35.1973C73.9504 35.2612 74.1171 35.3214 74.2803 35.3782C74.6846 35.5378 75.0463 35.6974 75.291 35.8463C75.4719 35.9634 75.5783 36.0698 75.5889 36.1655C75.5145 36.2294 75.4081 36.2932 75.291 36.3464C75.2059 36.3819 75.1173 36.4102 75.025 36.4315C75.0179 36.4315 75.0109 36.428 75.0038 36.4209C74.9116 36.3641 74.8158 36.3074 74.7165 36.2506C74.6633 36.2187 74.5995 36.1868 74.5356 36.1549C74.5002 36.1336 74.4576 36.1123 74.4079 36.091C74.3654 36.0591 74.3228 36.0378 74.2803 36.0166C74.11 35.9314 73.9398 35.857 73.7802 35.7931C73.4078 35.6548 73.078 35.5591 72.7801 35.5059C72.5957 35.4704 72.429 35.4456 72.28 35.4314C71.748 35.3995 71.4289 35.4739 71.4289 35.4739C71.3721 35.4598 71.3189 35.4349 71.2693 35.3995C70.982 35.2186 70.7905 34.8143 70.8862 34.4632C70.9394 34.261 71.0884 34.0802 71.2693 33.9418C71.3331 33.8993 71.4005 33.8638 71.4714 33.8354Z" fill="white"/>
<path d="M67.6616 44.2633C67.385 43.8058 67.3531 43.1462 67.9702 42.7419C68.0979 42.6461 68.3958 42.5397 68.7682 42.4546C68.6937 42.7419 68.832 43.093 69.0661 43.2951C69.364 43.5398 69.7683 43.6143 70.1619 43.6569C70.4386 43.6888 70.7152 43.6994 70.9918 43.6994C70.4598 43.8058 69.9917 44.0718 69.6512 44.2846C69.4916 44.391 69.1831 44.5931 69.1831 44.5931C68.4809 45.0187 67.9383 44.6995 67.6616 44.2633Z" fill="white"/>
<path d="M69.481 39.3794C69.4066 39.4645 69.364 39.5603 69.3747 39.688C69.4066 39.8901 69.6194 40.0178 69.8215 40.1029C70.9174 40.5391 72.1729 40.3689 73.3007 40.7519C73.4283 40.7945 73.5773 40.869 73.673 40.9647C73.6624 40.9754 73.6411 40.9966 73.6305 41.0073C73.3858 41.1562 73.0985 41.1988 72.7793 41.1988C72.6162 41.1988 72.4495 41.1882 72.2793 41.1669C72.1871 41.1598 72.0913 41.1491 71.992 41.135C71.7579 41.1137 71.5132 41.0924 71.2685 41.0818C71.077 41.0711 70.8748 41.0711 70.6727 41.0924C70.396 41.1243 70.1407 41.1882 69.9066 41.2414C69.7364 41.2839 69.5662 41.3265 69.3853 41.3584C69.1725 41.3903 68.7788 41.4222 68.5448 41.2307C68.2362 40.9966 68.2575 40.454 68.4596 40.0816C68.6512 39.7518 68.9703 39.4752 69.3002 39.2305C69.3534 39.2837 69.4172 39.3369 69.481 39.3794Z" fill="white"/>
<path d="M69.8746 37.9108C69.9385 37.5065 70.1512 37.1235 70.5236 36.7298C70.5733 36.6731 70.63 36.6163 70.6939 36.5596C71.0769 37.0277 71.694 37.2937 72.3004 37.432C73.0665 37.5916 73.8751 37.6235 74.5773 37.964C74.5915 37.9711 74.6092 37.9782 74.6305 37.9853C74.6199 38.0172 74.6092 38.0598 74.5986 38.0917C74.5667 38.1768 74.4816 38.347 74.3113 38.4109C74.3007 38.4215 74.2901 38.4215 74.2794 38.4215C74.1411 38.4641 73.9709 38.4534 73.7793 38.4109C73.6588 38.3825 73.5311 38.3506 73.3963 38.3151C73.2757 38.2796 73.1516 38.2477 73.0239 38.2193C72.9495 38.1981 72.8643 38.1981 72.7792 38.1768C72.609 38.1555 72.4423 38.1413 72.2792 38.1342C71.9387 38.1236 71.5982 38.1555 71.2684 38.2406C71.1195 38.2725 70.9705 38.3151 70.8322 38.3683L70.6619 38.4321C70.4385 38.5173 70.2151 38.613 70.0768 38.5705C69.9278 38.5279 69.8214 38.2087 69.8746 37.9108Z" fill="white"/>
<path d="M74.5793 25.813C74.2921 26.4514 74.0899 27.2919 74.5793 27.8026C74.8773 28.1112 75.3135 28.1857 75.7391 28.2069C75.6433 28.6325 75.5582 29.0581 75.505 29.4837C75.4837 29.7284 75.4518 29.9944 75.3348 30.0901C75.3241 30.1008 75.3135 30.1008 75.2922 30.1114C75.2567 30.1256 75.2177 30.1362 75.1752 30.1433C75.1007 30.154 74.9943 30.1433 74.8879 30.1221C74.6645 30.0689 74.4623 29.9625 74.2814 29.8242C74.0793 29.6646 73.9197 29.4518 73.7814 29.2177C73.7246 29.1184 73.6785 29.0155 73.6431 28.9091C73.5367 28.6432 73.4728 28.3665 73.4728 28.1005C73.4622 27.6643 73.5792 27.2068 73.7814 26.7493C73.9091 26.462 74.0793 26.1854 74.2814 25.9194C74.3985 25.7598 74.5155 25.6215 74.6538 25.4726C74.7177 25.4016 74.7851 25.3307 74.856 25.2598C74.7602 25.4406 74.6645 25.6215 74.5793 25.813Z" fill="white"/>
<path d="M69.7702 11.1411C69.7702 10.907 69.7596 10.6729 69.7596 10.4282C70.0362 11.5028 70.2703 12.5987 70.4299 13.6946C70.6214 14.9288 70.7385 16.2162 70.4618 17.4397C70.2597 18.3654 69.8447 19.2378 69.7915 20.1847C69.749 21.121 70.2278 22.1956 71.1534 22.3871C71.3662 22.4297 71.6003 22.419 71.8024 22.5042C72.345 22.7063 72.5153 23.3872 72.9302 23.8022C73.5473 24.4193 74.5368 24.2916 75.388 24.015C75.3525 24.0363 75.3206 24.0575 75.2922 24.0788C74.973 24.2916 74.6325 24.515 74.2814 24.7491C74.1112 24.8768 73.9516 24.9938 73.7814 25.1321C73.3771 25.462 73.0153 25.845 72.7813 26.3238C72.5897 26.6962 72.4833 27.1324 72.5046 27.6431C72.5046 27.6431 72.4089 27.6112 72.2812 27.5473C72.0152 27.4197 71.5896 27.1217 71.4407 26.4834C71.3981 26.3486 71.3555 26.2103 71.313 26.0684C71.2988 26.0259 71.2846 25.9833 71.2704 25.9408C71.1321 25.4726 70.9725 25.0045 70.6427 24.5895C70.3554 24.2278 69.983 23.9831 69.6319 23.749C69.5184 23.6781 69.405 23.6036 69.2915 23.5256C69.0042 23.3128 68.6531 22.9936 68.6425 22.6318C68.6425 22.5467 68.6531 22.4297 68.6744 22.3126C68.685 22.2063 68.7063 22.0999 68.7063 21.9935C68.7382 21.536 68.6212 21.121 68.5041 20.7167C68.4403 20.4826 68.3765 20.2592 68.3445 20.0464C68.2701 19.4612 68.4616 18.8548 68.6637 18.2058C68.6637 18.1987 68.6673 18.1916 68.6744 18.1845L68.7276 17.993C68.7808 17.8227 68.8233 17.6525 68.8765 17.4823C68.9687 17.1631 69.0539 16.8404 69.1319 16.5141C69.1532 16.4219 69.1744 16.3296 69.1957 16.2374C69.217 16.1523 69.2347 16.0672 69.2489 15.9821C69.2986 15.7551 69.3447 15.5281 69.3872 15.3012C69.4014 15.1948 69.4191 15.0919 69.4404 14.9926C69.4617 14.8437 69.4936 14.6947 69.5149 14.5457C69.5255 14.4181 69.5468 14.2798 69.5575 14.1521C69.5858 13.9464 69.6107 13.7442 69.6319 13.5456C69.6532 13.3612 69.6709 13.1803 69.6851 13.003C69.7135 12.7051 69.7312 12.4107 69.7383 12.1199C69.7454 12.0703 69.749 12.0206 69.749 11.971C69.7632 11.6943 69.7702 11.4177 69.7702 11.1411Z" fill="white"/>
<path d="M67.3533 20.1733C67.332 20.0138 67.332 19.8542 67.332 19.6946C67.3427 19.3541 67.3959 19.0243 67.481 18.7051C67.5164 18.5561 67.5555 18.4072 67.598 18.2582C67.6264 18.1589 67.6548 18.0632 67.6831 17.9709C67.6973 17.9426 67.708 17.9142 67.7151 17.8858L67.7683 17.6943C67.8108 17.5596 67.8534 17.4248 67.8959 17.29C67.8959 17.2758 67.8995 17.2616 67.9066 17.2475C67.9491 17.0772 67.9917 16.907 68.0342 16.7368C68.0413 16.7226 68.0484 16.7084 68.0555 16.6942C68.0626 16.6658 68.0697 16.6375 68.0768 16.6091C68.1052 16.5027 68.13 16.3927 68.1513 16.2793C68.1938 16.1232 68.2293 15.9672 68.2577 15.8111C68.2719 15.7473 68.286 15.687 68.3002 15.6302C68.357 15.3607 68.4066 15.0912 68.4492 14.8216C68.4705 14.694 68.4917 14.5663 68.513 14.4386C68.5201 14.396 68.5272 14.3499 68.5343 14.3003C68.584 13.9669 68.623 13.6335 68.6513 13.3002C68.6726 13.0874 68.6939 12.8746 68.7152 12.6618C68.7223 12.5625 68.7258 12.4632 68.7258 12.3639C68.74 12.1156 68.7506 11.8674 68.7577 11.6191C68.7719 11.2503 68.7719 10.8814 68.7577 10.5126C68.7506 10.087 68.7329 9.66142 68.7045 9.23584C68.8464 9.35642 68.9918 9.46991 69.1408 9.57631C69.3465 9.71817 69.5486 9.85294 69.7472 9.98061C69.7472 10.0303 69.7472 10.0799 69.7472 10.1296C69.7579 10.2253 69.7472 10.3317 69.7579 10.4275C69.7579 10.6722 69.7685 10.9063 69.7685 11.1403C69.7685 11.417 69.7614 11.6936 69.7472 11.9702C69.7472 12.0199 69.7437 12.0695 69.7366 12.1192C69.7295 12.41 69.7118 12.7043 69.6834 13.0023C69.6692 13.1796 69.6515 13.3605 69.6302 13.5449C69.6089 13.7435 69.5841 13.9456 69.5557 14.1513C69.5451 14.279 69.5238 14.4173 69.5131 14.545C69.4919 14.694 69.4599 14.8429 69.4387 14.9919C69.4174 15.0912 69.3997 15.194 69.3855 15.3004C69.3429 15.5274 69.2968 15.7544 69.2472 15.9813C69.233 16.0665 69.2152 16.1516 69.194 16.2367C69.1727 16.3289 69.1514 16.4211 69.1301 16.5133C69.0521 16.8396 68.967 17.1623 68.8748 17.4815C68.8216 17.6518 68.779 17.822 68.7258 17.9922L68.6726 18.1837C68.6655 18.1908 68.662 18.1979 68.662 18.205C68.4598 18.854 68.2683 19.4605 68.3428 20.0457C68.3747 20.2585 68.4385 20.4819 68.5024 20.716C68.6194 21.1203 68.7365 21.5352 68.7045 21.9927C68.7045 22.0991 68.6833 22.2055 68.6726 22.3119C68.6513 22.4289 68.6407 22.546 68.6407 22.6311C68.6513 22.9928 69.0024 23.312 69.2897 23.5248C69.4032 23.6028 69.5167 23.6773 69.6302 23.7482C69.9813 23.9823 70.3537 24.227 70.6409 24.5888C70.9708 25.0037 71.1304 25.4719 71.2687 25.94C71.2829 25.9826 71.297 26.0251 71.3112 26.0677C71.3538 26.2095 71.3964 26.3479 71.4389 26.4826C71.5879 27.121 72.0135 27.4189 72.2794 27.5466C72.4071 27.6104 72.5029 27.6423 72.5029 27.6423C72.4816 27.1316 72.588 26.6954 72.7795 26.323C73.0136 25.8442 73.3753 25.4612 73.7796 25.1314C73.9499 24.9931 74.1095 24.876 74.2797 24.7484C74.6308 24.5143 74.9713 24.2909 75.2904 24.0781C75.3188 24.0568 75.3507 24.0355 75.3862 24.0142C75.5245 23.9078 75.6628 23.8121 75.7905 23.7057C76.0033 23.5355 76.1735 23.3546 76.2799 23.1524C76.1948 23.5567 76.0139 23.8972 75.7905 24.2058C75.6416 24.4185 75.4607 24.6207 75.2904 24.8016C75.1911 24.908 75.0954 25.0108 75.0032 25.1101C74.9535 25.1598 74.9039 25.2094 74.8542 25.2591C74.7833 25.33 74.7159 25.4009 74.6521 25.4719C74.5138 25.6208 74.3967 25.7591 74.2797 25.9187C74.0775 26.1847 73.9073 26.4613 73.7796 26.7486C73.5775 27.2061 73.4604 27.6636 73.4711 28.0998C73.4711 28.3658 73.5349 28.6425 73.6413 28.9085C73.6768 29.0148 73.7229 29.1177 73.7796 29.217C73.9179 29.4511 74.0775 29.6639 74.2797 29.8235C74.4606 29.9618 74.6627 30.0682 74.8861 30.1214C74.9925 30.1426 75.0989 30.1533 75.1734 30.1426C75.216 30.1356 75.255 30.1249 75.2904 30.1107C75.3117 30.1001 75.3224 30.1001 75.333 30.0894C75.45 29.9937 75.482 29.7277 75.5032 29.483C75.5564 29.0574 75.6416 28.6318 75.7373 28.2062C75.7586 28.1318 75.7692 28.0573 75.7905 27.9828C76.0246 27.1104 76.365 26.2698 76.8013 25.4825C76.9502 25.1952 77.1205 24.9186 77.3013 24.6526C77.429 24.4611 77.5638 24.2731 77.7056 24.0887C77.8191 23.9398 77.9326 23.7944 78.0461 23.6525C78.1312 23.5461 78.2163 23.4397 78.3015 23.3333C78.4823 23.0992 78.6526 22.8652 78.7909 22.6205C78.8228 22.5779 78.8547 22.5247 78.876 22.4821C78.9398 22.3438 79.0037 22.2055 79.0569 22.0566C79.1739 21.7054 79.2697 21.3331 79.3548 20.9181C79.525 20.0776 79.6952 19.1839 79.6208 18.3327C79.5569 17.5241 79.2909 16.7687 78.9505 16.0026C78.8122 15.6728 78.6632 15.3536 78.5036 15.0238C78.4894 14.9954 78.4717 14.9635 78.4504 14.928C78.2802 14.5769 78.1099 14.2152 77.9503 13.8428C77.8865 13.6832 77.812 13.5236 77.7482 13.364C77.5354 12.8427 77.3652 12.3 77.2162 11.7681C77.4077 11.7893 77.6099 11.8106 77.8014 11.8425C77.9716 11.8745 78.1312 11.9064 78.3015 11.9277C78.4185 12.2894 78.5355 12.6512 78.6738 12.9916C78.8228 13.3534 78.993 13.7257 79.1633 14.0875C79.2271 14.2223 79.2909 14.357 79.3548 14.4918C79.3902 14.5627 79.4222 14.6337 79.4505 14.7046C79.5569 14.9174 79.6562 15.1266 79.7484 15.3323C79.908 15.6728 80.0463 16.0026 80.174 16.3537C80.245 16.5523 80.3123 16.758 80.3762 16.9708C80.4826 17.3539 80.5677 17.7475 80.6102 18.1518C80.6173 18.1802 80.6209 18.2121 80.6209 18.2476C80.6315 18.3965 80.6315 18.5455 80.6315 18.6944C80.6422 19.5243 80.4932 20.3542 80.3336 21.1309C80.1953 21.748 80.057 22.3651 79.7697 22.929C79.5676 23.3227 79.3122 23.6738 79.0569 24.0036C78.9788 24.0958 78.9008 24.1916 78.8228 24.2909C78.7093 24.4256 78.5994 24.5604 78.493 24.6952C78.4291 24.7803 78.3653 24.876 78.3015 24.9612C77.9078 25.5144 77.5673 26.0996 77.3013 26.7167C77.2801 26.7593 77.2588 26.8054 77.2375 26.855C77.1666 27.0111 77.1027 27.1671 77.046 27.3232C76.9538 27.5785 76.8722 27.8374 76.8013 28.0998C76.7729 28.185 76.7481 28.2701 76.7268 28.3552C76.67 28.5893 76.6204 28.8269 76.5778 29.068C76.5459 29.2383 76.5246 29.4085 76.5034 29.5894C76.4821 29.7383 76.4608 29.9086 76.4182 30.0788C76.4182 30.0788 76.3863 30.1533 76.3225 30.2597C76.3154 30.2668 76.3118 30.2703 76.3118 30.2703C76.2622 30.3483 76.2125 30.4193 76.1629 30.4831C76.1487 30.4973 76.1381 30.5115 76.131 30.5257C76.0955 30.5611 76.06 30.5931 76.0246 30.6214C76.0246 30.6285 76.0246 30.6321 76.0246 30.6321C76.0104 30.6463 75.9962 30.6569 75.982 30.664C75.9395 30.6959 75.6522 30.9406 75.1309 31.0045C74.8223 31.0257 74.535 30.9725 74.2903 30.8874C74.2903 30.8874 74.2868 30.8874 74.2797 30.8874C74.2726 30.8874 74.2655 30.8839 74.2584 30.8768C74.0775 30.8129 73.9179 30.7278 73.7796 30.6427C73.7796 30.6427 73.7796 30.6392 73.7796 30.6321C73.7654 30.6321 73.7548 30.6285 73.7477 30.6214C73.6519 30.547 73.5562 30.4831 73.4817 30.4193C73.4392 30.3767 73.3966 30.3342 73.354 30.2916C73.2476 30.1781 73.1483 30.0575 73.0561 29.9299C73.0419 29.9157 73.0313 29.8979 73.0242 29.8767C72.932 29.7419 72.8504 29.6 72.7795 29.4511C72.6625 29.1957 72.5667 28.9191 72.5135 28.6318L72.322 28.5786L72.2794 28.568L72.0347 28.5148C72.0347 28.5077 72.0312 28.5041 72.0241 28.5041C71.7475 28.4403 71.4921 28.2914 71.2687 28.0892C70.9495 27.7913 70.6835 27.3657 70.492 26.8018C70.4423 26.6529 70.3962 26.5039 70.3537 26.3549C70.226 25.9187 70.0983 25.5144 69.8643 25.2165C69.6727 24.9718 69.3855 24.7803 69.0769 24.5888C68.9563 24.5037 68.8322 24.4185 68.7045 24.3334C68.0342 23.844 67.6725 23.2801 67.6406 22.6736C67.6299 22.4928 67.6619 22.3119 67.6831 22.1629C67.6938 22.0885 67.7044 22.0034 67.7151 21.9289C67.7257 21.6416 67.6406 21.3224 67.5448 20.9926C67.4703 20.7372 67.3959 20.4713 67.3533 20.1733Z" fill="white"/>
<path d="M77.9731 43.9858C77.7496 44.188 77.5262 44.4008 77.3028 44.6349C77.1325 44.8122 76.9658 44.9966 76.8027 45.1881C76.6644 45.3371 76.5367 45.486 76.409 45.6456L76.3558 45.7095C76.175 45.9542 75.9941 46.1776 75.7919 46.3266C75.7707 46.3478 75.76 46.3691 75.7387 46.3797C75.6004 46.4649 75.4515 46.5287 75.2919 46.5713C74.9727 46.667 74.6216 46.6883 74.2811 46.6989C74.2244 46.6989 74.1712 46.7025 74.1215 46.7096C74.008 46.7096 73.8945 46.7131 73.7811 46.7202C73.4725 46.7309 73.132 46.7415 72.7809 46.7841C72.6178 46.7982 72.4511 46.8195 72.2809 46.8479C71.9404 46.9011 71.5999 46.9756 71.2701 47.0926C71.0148 47.1777 70.7594 47.2841 70.5041 47.4118C70.4331 47.4543 70.3622 47.4969 70.2913 47.5395C70.0678 47.6671 69.8657 47.7842 69.6742 47.8055C69.4614 47.8267 69.2911 47.7097 69.1848 47.5927C68.9613 47.3586 68.8443 46.9968 68.8975 46.6883C68.9117 46.6103 68.933 46.5322 68.9613 46.4542C69.089 46.5287 69.2273 46.5713 69.3763 46.6032C69.6103 46.6351 69.8551 46.6245 70.0785 46.5713C70.5573 46.4649 70.9935 46.2202 71.4723 46.0925C72.4405 45.8478 73.4619 46.1138 74.4514 45.9754C75.0259 45.8903 75.5472 45.6775 76.0473 45.3903C76.7176 45.0072 77.3453 44.4965 77.9731 43.9858Z" fill="white"/>
<path fill-rule="evenodd" clip-rule="evenodd" d="M69.62 48.8052C69.1838 48.8052 68.7795 48.6244 68.4496 48.2839C68.0134 47.8051 67.8006 47.1348 67.907 46.5177C67.9602 46.2517 68.056 45.9964 68.1836 45.7517C67.5985 45.6453 67.1197 45.2623 66.8218 44.7941C66.2792 43.9323 66.3004 42.6343 67.407 41.9214C67.4814 41.8682 67.5772 41.815 67.6729 41.7618C67.1942 41.1554 67.2261 40.2404 67.5878 39.5914C67.907 39.0275 68.4071 38.6338 68.8752 38.3146C68.8539 38.1231 68.8539 37.9422 68.8859 37.7614C69.0242 36.8357 69.6306 36.1335 70.2584 35.6122C70.0775 35.3249 69.9817 34.9951 69.9817 34.6652C69.9746 34.5163 69.9924 34.3709 70.0349 34.229C70.1945 33.6332 70.684 33.1544 71.2691 32.9523C71.4926 32.8778 71.7266 32.8352 71.9713 32.8459C72.0671 32.8459 72.1735 32.8671 72.2799 32.8778C72.443 32.8849 72.6097 32.9061 72.78 32.9416C72.78 32.9416 72.7835 32.9416 72.7906 32.9416C73.1204 33.0161 73.4609 33.1118 73.7801 33.2502C73.9503 33.3282 74.117 33.4098 74.2801 33.4949C74.6419 33.6757 74.9823 33.8992 75.2909 34.1332C75.4753 34.2751 75.642 34.4205 75.791 34.5695C75.908 34.6759 76.025 34.7929 76.1208 34.9099C76.4932 35.3568 76.6634 35.7505 76.5996 36.0909C76.557 36.5059 76.2272 36.857 75.791 37.0804C75.7129 37.123 75.6314 37.162 75.5462 37.1974C75.6207 37.4315 75.6526 37.6762 75.642 37.9316C75.6952 37.8997 75.7378 37.889 75.791 37.8677C75.8761 37.8252 75.9612 37.8039 76.0463 37.772C76.3123 37.6656 76.5676 37.5911 76.8017 37.5379C76.979 37.5025 77.1457 37.4776 77.3018 37.4634C77.4295 37.4563 77.5465 37.4528 77.6529 37.4528C77.6813 37.4528 77.7096 37.4528 77.738 37.4528C77.9614 37.4634 78.1423 37.4954 78.3019 37.5379C78.3657 37.5592 78.4083 37.5805 78.4615 37.5911C78.4686 37.5911 78.4757 37.5947 78.4828 37.6018C78.7168 37.6869 78.8445 37.772 78.8445 37.772C78.6636 37.7826 78.4828 37.8039 78.3019 37.8358C77.9614 37.889 77.621 37.9848 77.3018 38.1231C77.1245 38.194 76.9578 38.2756 76.8017 38.3678C76.4293 38.57 76.0889 38.8253 75.791 39.1232C75.7378 39.1871 75.6739 39.2403 75.6314 39.2935C75.6314 39.3254 75.642 39.3573 75.642 39.3892C75.6314 39.751 75.4824 40.0489 75.376 40.2723C75.3476 40.329 75.3193 40.3893 75.2909 40.4532C75.0462 40.9426 74.7483 41.4107 74.2801 41.7512C74.2695 41.7618 74.2482 41.7831 74.2376 41.7938C74.0602 41.964 73.9077 42.1839 73.7801 42.4534C73.5886 42.8506 73.4538 43.3613 73.3758 43.9855L73.3438 44.2302L73.1204 44.3579C73.0069 44.4217 72.8934 44.4714 72.78 44.5069C72.6097 44.5601 72.4395 44.5813 72.2799 44.6026C72.1097 44.6132 71.9394 44.6239 71.7905 44.6345C71.599 44.6345 71.4287 44.6452 71.2691 44.6664C71.2478 44.6771 71.2266 44.6771 71.2053 44.6771C70.9074 44.7303 70.5988 44.8686 70.1945 45.1239C69.5455 45.5389 69.1306 45.9858 68.9603 46.4539C68.932 46.5319 68.9107 46.6099 68.8965 46.688C68.8433 46.9965 68.9603 47.3583 69.1838 47.5923C69.2902 47.7094 69.4604 47.8264 69.6732 47.8051C69.8647 47.7838 70.0669 47.6668 70.2903 47.5391C70.3612 47.4966 70.4321 47.454 70.5031 47.4115C70.7584 47.2838 71.0138 47.1774 71.2691 47.0923C71.599 46.9752 71.9394 46.9008 72.2799 46.8476C72.4501 46.8192 72.6168 46.7979 72.78 46.7837C73.1311 46.7412 73.4715 46.7305 73.7801 46.7199C73.8936 46.7128 74.007 46.7092 74.1205 46.7092C74.1702 46.7022 74.2234 46.6986 74.2801 46.6986C74.6206 46.688 74.9717 46.6667 75.2909 46.5709C75.4505 46.5284 75.5994 46.4645 75.7378 46.3794C75.759 46.3688 75.7697 46.3475 75.791 46.3262C75.9931 46.1773 76.174 45.9538 76.3549 45.7091L76.4081 45.6453C76.5357 45.4857 76.6634 45.3367 76.8017 45.1878C76.9649 44.9963 77.1315 44.8119 77.3018 44.6345C77.5252 44.4005 77.7486 44.1877 77.9721 43.9855C78.0785 43.8791 78.1955 43.7727 78.3019 43.677C79.451 42.6981 80.4085 42.23 81.0682 41.9959C81.6534 41.7938 81.9938 41.7831 81.9938 41.7831C81.6747 41.9959 81.3661 42.2158 81.0682 42.4428C80.2383 43.0599 79.4723 43.7514 78.7488 44.4856C78.5998 44.6452 78.4509 44.7941 78.3019 44.9537C77.589 45.6134 77.0783 47.1561 75.791 47.5072C75.7058 47.5179 75.6207 47.5391 75.5356 47.5498C75.4505 47.5711 75.376 47.5817 75.2909 47.603C74.9398 47.6668 74.5993 47.6881 74.2801 47.6987C74.2376 47.6987 74.1915 47.7023 74.1418 47.7094C74.0212 47.7094 73.9007 47.7129 73.7801 47.72C73.4396 47.7306 73.0991 47.7519 72.78 47.7838C72.6097 47.8051 72.443 47.83 72.2799 47.8583C71.9181 47.9222 71.5883 48.0179 71.2691 48.1562C71.1769 48.1988 71.0812 48.2449 70.9819 48.2945C70.918 48.33 70.8542 48.3655 70.7903 48.4009C70.5031 48.5712 70.1839 48.7521 69.7902 48.8052C69.7335 48.8052 69.6767 48.8052 69.62 48.8052ZM72.8119 42.1874C72.7977 42.1874 72.787 42.1874 72.78 42.1874C72.6097 42.1874 72.443 42.1803 72.2799 42.1661C72.1451 42.159 72.0139 42.1484 71.8862 42.1342C71.6734 42.1129 71.4713 42.0917 71.2691 42.081C71.0989 42.0704 70.9393 42.0704 70.7797 42.0917C70.5669 42.1129 70.3648 42.1555 70.1413 42.2193C69.9392 42.2619 69.7477 42.3151 69.5455 42.347C69.3895 42.3683 69.237 42.3789 69.088 42.3789C68.9745 42.4002 68.8681 42.425 68.7688 42.4534C68.3964 42.5385 68.0985 42.6449 67.9709 42.7407C67.3538 43.145 67.3857 43.8046 67.6623 44.2621C67.9389 44.6984 68.4816 45.0176 69.1838 44.592C69.1838 44.592 69.4923 44.3898 69.6519 44.2834C69.9924 44.0706 70.4605 43.8046 70.9925 43.6982C71.0067 43.6982 71.0173 43.6982 71.0244 43.6982C71.1095 43.677 71.1947 43.677 71.2691 43.6663C71.4323 43.6521 71.5919 43.6415 71.7479 43.6344C71.9501 43.6238 72.1203 43.6131 72.2799 43.5918C72.3224 43.5812 72.3756 43.5812 72.4288 43.5706C72.5033 43.0811 72.631 42.6556 72.78 42.2725C72.7906 42.2513 72.8012 42.2193 72.8119 42.1874ZM74.6419 39.3786C74.6419 39.3715 74.6419 39.3644 74.6419 39.3573C74.5142 39.3998 74.3972 39.4211 74.2801 39.4318C74.1099 39.453 73.9503 39.453 73.7801 39.4211C73.5566 39.3998 73.3332 39.336 73.1311 39.2828C73.0247 39.2473 72.9147 39.219 72.8012 39.1977C72.7941 39.1906 72.787 39.1871 72.78 39.1871C72.6097 39.1551 72.4501 39.1339 72.2799 39.1339C71.9394 39.1232 71.599 39.1658 71.2691 39.2722C71.2372 39.2828 71.2053 39.2935 71.184 39.3041L71.0244 39.3573C70.7797 39.4637 70.4818 39.5807 70.152 39.5807C70.0385 39.5807 69.9179 39.563 69.7902 39.5275C69.6732 39.485 69.5774 39.4318 69.4817 39.3786C69.4178 39.336 69.354 39.2828 69.3008 39.2296C68.971 39.4743 68.6518 39.751 68.4603 40.0808C68.2581 40.4532 68.2368 40.9958 68.5454 41.2299C68.7795 41.4214 69.1731 41.3895 69.3859 41.3575C69.5668 41.3256 69.737 41.2831 69.9073 41.2405C70.1413 41.1873 70.3967 41.1235 70.6733 41.0915C70.8755 41.0703 71.0776 41.0703 71.2691 41.0809C71.5138 41.0915 71.7585 41.1128 71.9926 41.1341C72.0919 41.1483 72.1877 41.1589 72.2799 41.166C72.4501 41.1873 72.6168 41.1979 72.78 41.1979C73.0991 41.1979 73.3864 41.1554 73.6311 41.0064C73.6418 40.9958 73.663 40.9745 73.6737 40.9639C73.7091 40.9355 73.7446 40.9071 73.7801 40.8787C73.9822 40.7085 74.1418 40.4851 74.2801 40.2191C74.3511 40.0985 74.4184 39.9708 74.4823 39.8361C74.5568 39.6871 74.6419 39.5062 74.6419 39.3786ZM70.0775 38.57C70.2158 38.6125 70.4392 38.5168 70.6627 38.4316L70.8329 38.3678C70.9712 38.3146 71.1202 38.2721 71.2691 38.2401C71.599 38.155 71.9394 38.1231 72.2799 38.1337C72.443 38.1408 72.6097 38.155 72.78 38.1763C72.8651 38.1976 72.9502 38.1976 73.0247 38.2189C73.1523 38.2472 73.2765 38.2791 73.397 38.3146C73.5318 38.3501 73.6595 38.382 73.7801 38.4104C73.9716 38.4529 74.1418 38.4636 74.2801 38.421C74.2908 38.421 74.3014 38.421 74.312 38.4104C74.4823 38.3465 74.5674 38.1763 74.5993 38.0912C74.61 38.0593 74.6206 38.0167 74.6312 37.9848C74.6738 37.7933 74.6525 37.5698 74.5568 37.4102C74.4716 37.3038 74.3759 37.1975 74.2801 37.1123C74.1241 36.9563 73.9574 36.8286 73.7801 36.7293C73.4609 36.5484 73.1204 36.442 72.78 36.3782C72.6665 36.3569 72.553 36.3392 72.4395 36.325C72.3827 36.3179 72.3295 36.3144 72.2799 36.3144C71.8862 36.2824 71.5245 36.3037 71.2691 36.3356C71.0244 36.3569 70.8755 36.3995 70.8755 36.3995C70.8116 36.4491 70.7513 36.5023 70.6946 36.5591C70.6307 36.6158 70.574 36.6726 70.5244 36.7293C70.152 37.123 69.9392 37.506 69.8753 37.9103C69.8221 38.2082 69.9285 38.5274 70.0775 38.57ZM71.9501 33.7396C71.7905 33.7289 71.6202 33.7609 71.4713 33.8353C71.4003 33.8637 71.333 33.8992 71.2691 33.9417C71.0883 34.08 70.9393 34.2609 70.8861 34.4631C70.7903 34.8142 70.9819 35.2185 71.2691 35.3994C71.3188 35.4348 71.372 35.4597 71.4287 35.4738C71.4287 35.4738 71.7479 35.3994 72.2799 35.4313C72.4288 35.4455 72.5955 35.4703 72.78 35.5058C73.0779 35.559 73.4077 35.6547 73.7801 35.793C73.9397 35.8569 74.1099 35.9313 74.2801 36.0165C74.3227 36.0377 74.3652 36.059 74.4078 36.0909C74.4575 36.1122 74.5 36.1335 74.5355 36.1548C74.5993 36.1867 74.6632 36.2186 74.7164 36.2505C74.8157 36.3073 74.9114 36.364 75.0036 36.4208C75.0107 36.4279 75.0178 36.4314 75.0249 36.4314C75.1171 36.4101 75.2058 36.3817 75.2909 36.3463C75.4079 36.2931 75.5143 36.2292 75.5888 36.1654C75.6633 36.0909 75.7165 36.0271 75.7271 35.9739C75.7165 35.8249 75.5569 35.5802 75.2909 35.3142C75.0355 35.0483 74.6951 34.761 74.2801 34.5056C74.1241 34.4063 73.9574 34.3141 73.7801 34.229C73.4609 34.0588 73.1311 33.9311 72.78 33.846C72.6097 33.8034 72.4501 33.7715 72.2799 33.7502C72.1735 33.7431 72.0635 33.7396 71.9501 33.7396Z" fill="white"/>
</svg>
